<svg height="496pt" viewBox="0 0 496 496" width="496pt" xmlns="http://www.w3.org/2000/svg"><path d="m396.945312 80-30.632812-61.265625c-5.777344-11.558594-17.390625-18.734375-30.3125-18.734375s-24.535156 7.175781-30.3125 18.734375l-30.632812 61.265625h-275.054688v416h496v-416zm83.054688 16v48h-51.054688l-24-48zm-160-70.113281c3.046875-6.09375 9.175781-9.886719 16-9.886719s12.953125 3.792969 16 9.886719l92.742188 185.496093c2.128906 4.257813 3.257812 9.015626 3.257812 13.785157 0 17-13.832031 30.832031-30.832031 30.832031h-162.335938c-17 0-30.832031-13.832031-30.832031-30.832031 0-4.769531 1.128906-9.527344 3.257812-13.792969zm-52.945312 70.113281-24 48h-227.054688v-48zm-251.054688 384v-320h219.054688l-22.109376 44.214844c-3.234374 6.464844-4.945312 13.714844-4.945312 20.953125 0 25.824219 21.007812 46.832031 46.832031 46.832031h162.335938c25.824219 0 46.832031-21.007812 46.832031-46.832031 0-7.238281-1.710938-14.488281-4.945312-20.945313l-22.109376-44.222656h43.054688v320zm0 0"/><path d="m32 112h16v16h-16zm0 0"/><path d="m64 112h16v16h-16zm0 0"/><path d="m96 112h16v16h-16zm0 0"/><path d="m310.28125 152.984375c1.453125 13.121094 12.511719 23.015625 25.71875 23.015625s24.265625-9.894531 25.710938-23.015625l6.097656-54.832031c.128906-1.136719.191406-2.28125.191406-3.410156 0-16.949219-13.792969-30.742188-30.742188-30.742188h-2.515624c-16.949219 0-30.742188 13.792969-30.742188 30.742188 0 1.136718.0625 2.273437.191406 3.394531zm24.460938-72.984375h2.515624c8.125 0 14.742188 6.617188 14.742188 14.742188 0 .539062-.03125 1.082031-.089844 1.625l-6.09375 54.847656c-.558594 5.007812-4.777344 8.785156-9.816406 8.785156s-9.257812-3.777344-9.816406-8.785156l-6.09375-54.855469c-.058594-.535156-.089844-1.078125-.089844-1.617187 0-8.125 6.617188-14.742188 14.742188-14.742188zm0 0"/><path d="m336 192c-13.230469 0-24 10.769531-24 24s10.769531 24 24 24 24-10.769531 24-24-10.769531-24-24-24zm0 32c-4.40625 0-8-3.59375-8-8s3.59375-8 8-8 8 3.59375 8 8-3.59375 8-8 8zm0 0"/><path d="m197.617188 329.167969-30.785157-30.785157-18.511719 9.257813-6.550781-19.640625h-43.53125l-6.550781 19.640625-18.511719-9.257813-30.785156 30.785157 9.265625 18.519531-19.65625 6.542969v43.53125l19.648438 6.542969-9.265626 18.519531 30.785157 30.785156 18.511719-9.257813 6.550781 19.648438h43.53125l6.550781-19.640625 18.511719 9.257813 30.785156-30.785157-9.265625-18.519531 19.65625-6.542969v-43.53125l-19.648438-6.542969zm-5.617188 36.601562v20.46875l-18.382812 6.128907-1.34375 3.5625c-.386719 1.015624-.785157 2.015624-1.226563 3l-1.550781 3.460937 8.648437 17.296875-14.472656 14.472656-17.296875-8.648437-3.464844 1.550781c-1 .449219-2.007812.839844-3.03125 1.242188l-3.527344 1.351562-6.121093 18.34375h-20.46875l-6.121094-18.351562-3.527344-1.351563c-1.023437-.402344-2.042969-.800781-3.035156-1.242187l-3.460937-1.550782-17.296876 8.648438-14.472656-14.472656 8.648438-17.296876-1.550782-3.460937c-.441406-.984375-.839843-1.984375-1.226562-3l-1.34375-3.5625-18.375-6.128906v-20.46875l18.382812-6.128907 1.34375-3.5625c.386719-1.015624.785157-2.015624 1.226563-3l1.550781-3.460937-8.65625-17.289063 14.472656-14.472656 17.296876 8.648438 3.460937-1.550782c1-.449218 2.011719-.839843 3.035156-1.242187l3.527344-1.351563 6.128906-18.351562h20.46875l6.121094 18.351562 3.527344 1.351563c1.023437.402344 2.042969.800781 3.035156 1.242187l3.460937 1.550782 17.296876-8.648438 14.472656 14.472656-8.648438 17.296876 1.550782 3.460937c.441406.984375.839843 1.984375 1.226562 3l1.34375 3.5625zm0 0"/><path d="m120 336c-22.054688 0-40 17.945312-40 40s17.945312 40 40 40 40-17.945312 40-40-17.945312-40-40-40zm0 64c-13.230469 0-24-10.769531-24-24s10.769531-24 24-24 24 10.769531 24 24-10.769531 24-24 24zm0 0"/><path d="m192 176h-160v96h160zm-16 80h-128v-64h128zm0 0"/><path d="m448 448h16v16h-16zm0 0"/><path d="m240 448h192v16h-192zm0 0"/><path d="m240 416h224v16h-224zm0 0"/><path d="m240 384h224v16h-224zm0 0"/><path d="m240 352h64v16h-64zm0 0"/><path d="m320 352h144v16h-144zm0 0"/><path d="m272 320h192v16h-192zm0 0"/><path d="m240 320h16v16h-16zm0 0"/></svg>