<?xml version="1.0" encoding="utf-8"?>
<!-- Generator: Adobe Illustrator 18.0.0, SVG Export Plug-In . SVG Version: 6.00 Build 0)  -->
<!DOCTYPE svg PUBLIC "-//W3C//DTD SVG 1.1//EN" "http://www.w3.org/Graphics/SVG/1.1/DTD/svg11.dtd">
<svg version="1.1" id="SvgjsSvg1100" xmlns:svgjs="http://svgjs.com/svgjs"
	 xmlns="http://www.w3.org/2000/svg" xmlns:xlink="http://www.w3.org/1999/xlink" x="0px" y="0px" viewBox="0 0 2645 841.9"
	 enable-background="new 0 0 2645 841.9" xml:space="preserve">
<g id="SvgjsSvg1100" xmlns:svgjs="http://svgjs.com/svgjs">
	<g>
		<g id="SvgjsG1102_7_">
			
				<linearGradient id="SVGID_1_" gradientUnits="userSpaceOnUse" x1="5.087" y1="806.976" x2="34.9145" y2="836.8035" gradientTransform="matrix(18.6008 0 0 -18.6008 1.760076e-002 15785.2988)">
				<stop  offset="5.000000e-002" style="stop-color:#3C71EC"/>
				<stop  offset="0.95" style="stop-color:#0F3999"/>
			</linearGradient>
			<path fill="url(#SVGID_1_)" d="M297.6,165.9L0,680.3h595.3L297.6,165.9z M288.3,486.2l-245,156.4l245-423.5V486.2z M288.3,508.3
				V562l-155.7,99.7H48L288.3,508.3z M297.6,578.1l131,83.6H167.2L297.6,578.1z M306.9,562v-53.7l240.4,153.4h-84.1L306.9,562
				L306.9,562z M306.9,486.2V219.1l245,423.5L306.9,486.2z"/>
		</g>
		<text transform="matrix(1 0 0 1 573 544.89)" font-family="'ZillaSlab-Bold'" font-size="325">TAMAGOCHI</text>
	</g>
	<g>
		<g id="SvgjsG1102_6_">
			<path fill="#FFFFFF" d="M297.6,165.9L0,680.3h595.3L297.6,165.9z M288.3,486.2l-245,156.4l245-423.5V486.2z M288.3,508.3V562
				l-155.7,99.7H48L288.3,508.3z M297.6,578.1l131,83.6H167.2L297.6,578.1z M306.9,562v-53.7l240.4,153.4h-84.1L306.9,562L306.9,562
				z M306.9,486.2V219.1l245,423.5L306.9,486.2z"/>
		</g>
		<text transform="matrix(1 0 0 1 573 544.89)" fill="#FFFFFF" font-family="'ZillaSlab-Bold'" font-size="325">TAMAGOCHI</text>
	</g>
</g>
</svg>
