<?xml version="1.0" standalone="no"?>
<!DOCTYPE svg PUBLIC "-//W3C//DTD SVG 20010904//EN"
 "http://www.w3.org/TR/2001/REC-SVG-20010904/DTD/svg10.dtd">
<svg version="1.0" xmlns="http://www.w3.org/2000/svg"
 width="595.000000pt" height="595.000000pt" viewBox="0 0 595.000000 595.000000"
 preserveAspectRatio="xMidYMid meet">
<metadata>
Created by potrace 1.11, written by Peter Selinger 2001-2013
</metadata>
<g transform="translate(0.000000,595.000000) scale(0.100000,-0.100000)"
fill="#000000" stroke="none">
<path d="M2883 5393 c-50 -87 -272 -471 -493 -853 -436 -753 -651 -1125 -682
-1180 -31 -53 -270 -466 -368 -635 -48 -82 -212 -366 -365 -630 -152 -264
-291 -505 -310 -535 -18 -30 -44 -75 -58 -100 -13 -25 -64 -112 -112 -195 -48
-82 -129 -222 -180 -310 -51 -88 -140 -243 -199 -345 -59 -102 -108 -189 -109
-195 -1 -6 1049 -10 2971 -10 2576 0 2972 1 2967 14 -5 12 -290 507 -623 1081
-47 80 -95 164 -108 187 -13 23 -187 322 -385 665 -199 343 -373 643 -386 668
-14 25 -40 70 -58 100 -18 30 -42 71 -53 90 -10 19 -77 134 -147 255 -70 121
-170 294 -223 385 -52 91 -167 289 -255 440 -88 151 -169 291 -179 310 -25 44
-410 709 -490 848 -33 56 -61 102 -62 102 -1 0 -43 -71 -93 -157z m-1 -1700
c0 -714 -1 -1309 -2 -1323 0 -18 -13 -32 -43 -51 -49 -31 -611 -389 -1147
-732 -206 -132 -456 -291 -555 -354 -222 -141 -641 -409 -674 -430 l-24 -16
20 34 c11 19 105 180 208 359 104 179 219 379 258 445 38 66 81 140 95 165 14
25 44 77 67 115 22 39 44 77 48 85 4 8 17 31 28 50 22 36 218 372 260 446 20
34 174 300 253 437 10 18 277 480 594 1027 317 547 582 1008 590 1023 8 16 16
26 19 23 3 -3 5 -589 5 -1303z m249 1215 c49 -87 141 -245 279 -483 58 -100
583 -1008 1012 -1750 124 -214 234 -404 244 -422 72 -121 180 -309 183 -318 2
-5 17 -29 32 -52 16 -23 29 -44 29 -46 0 -3 82 -146 182 -318 99 -173 189
-329 200 -347 10 -18 58 -102 107 -185 48 -84 94 -163 101 -176 l12 -24 -33
24 c-19 13 -43 29 -54 35 -11 6 -139 88 -285 181 -146 93 -447 286 -670 428
-223 142 -444 283 -492 314 -48 31 -144 92 -213 136 -69 44 -175 112 -235 150
-60 39 -142 91 -182 116 -40 26 -119 76 -175 113 l-103 66 0 1325 c0 729 2
1325 4 1325 2 0 27 -42 57 -92z m-248 -3053 c0 -208 -2 -259 -14 -269 -8 -8
-104 -71 -214 -141 -110 -70 -229 -147 -265 -170 -36 -23 -180 -115 -320 -205
-140 -89 -277 -177 -305 -195 -27 -18 -108 -70 -180 -115 -71 -46 -159 -102
-195 -125 l-65 -42 -417 0 c-407 0 -416 0 -393 19 13 10 28 18 34 18 6 0 11 3
11 8 0 4 9 12 20 17 11 6 83 51 160 100 77 50 214 137 305 195 443 283 1092
697 1495 955 138 88 258 165 268 170 9 6 28 18 41 28 13 9 26 15 29 13 2 -3 4
-120 5 -261z m482 80 c215 -138 680 -435 1010 -645 257 -164 508 -324 650
-415 72 -46 199 -127 283 -180 83 -53 152 -98 152 -99 0 -2 -186 -3 -412 -3
l-413 0 -620 395 c-341 217 -659 420 -707 451 -48 31 -121 77 -163 104 l-75
48 0 265 0 266 38 -23 c20 -13 136 -87 257 -164z m-268 -587 c62 -40 125 -80
138 -88 35 -21 166 -105 260 -166 44 -28 238 -152 430 -274 193 -122 351 -223
353 -225 1 -1 -583 -2 -1298 -2 -715 0 -1297 3 -1293 7 7 6 224 144 299 190
13 8 72 46 131 84 60 38 149 96 198 127 50 32 216 139 370 238 154 99 284 180
289 181 5 0 60 -33 123 -72z"/>
</g>
</svg>
